<svg id="Layer_1" data-name="Layer 1" xmlns="http://www.w3.org/2000/svg" viewBox="0 0 218.66 33.72"><defs><style>.cls-1{fill:#0cc45b;}</style></defs><g id="Group_1" data-name="Group 1"><path id="Path_1" data-name="Path 1" d="M24,7.65c-.18,2.89-.36,5.7-.53,8.52l-.3,5c-.08,1.33-.17,2.66-.24,4a.48.48,0,0,1-.27.44l-3.18,1.85a1.92,1.92,0,0,1-2.05,0c-1.05-.61-2.1-1.23-3.15-1.83a.53.53,0,0,1-.29-.5q-.22-3.87-.47-7.72c-.14-2.4-.29-4.79-.43-7.19-.06-.9-.13-1.8-.17-2.71a.57.57,0,0,1,.19-.42C14.45,6,15.83,5,17.21,3.94a1.94,1.94,0,0,1,2.47,0c1.31,1,2.62,2,3.94,3C23.91,7.14,24.1,7.35,24,7.65Z"/><path id="Path_2" data-name="Path 2" d="M3,30.23c-.55-2.22-1.1-4.39-1.64-6.56C1,22,.58,20.38.16,18.75A2,2,0,0,1,1,16.2l7.46-5.64.29-.2c.07.58.13,1.13.19,1.68.37,3.3.73,6.6,1.1,9.89.12,1.07.23,2.15.35,3.22,0,.3-.05.46-.62.64A14.33,14.33,0,0,0,3.42,30,1.23,1.23,0,0,1,3,30.23Z"/><path id="Path_3" data-name="Path 3" d="M33.88,30.23l1.63-6.56c.41-1.64.8-3.29,1.22-4.92a2,2,0,0,0-.86-2.55l-7.43-5.64-.3-.2c-.06.58-.12,1.13-.19,1.68q-.54,5-1.1,9.89c-.11,1.07-.23,2.15-.35,3.22,0,.3.05.46.62.64A14.27,14.27,0,0,1,33.47,30,1.27,1.27,0,0,0,33.88,30.23Z"/></g><path d="M46.77,26.06V8.5h4L50.87,12l-.67.27a5.4,5.4,0,0,1,.9-1.62,6.2,6.2,0,0,1,1.44-1.3,7.79,7.79,0,0,1,1.76-.87,5.91,5.91,0,0,1,1.9-.31,6.75,6.75,0,0,1,2.55.45,4.47,4.47,0,0,1,1.87,1.41,6.47,6.47,0,0,1,1.11,2.47l-.63-.13.27-.54a4.76,4.76,0,0,1,1-1.45,8.31,8.31,0,0,1,1.5-1.16,6.87,6.87,0,0,1,1.75-.79,6.78,6.78,0,0,1,1.82-.26A6.32,6.32,0,0,1,70.8,9a4.92,4.92,0,0,1,2,2.43,10.79,10.79,0,0,1,.66,4v10.6H69.33V15.73a6,6,0,0,0-.35-2.2,2.47,2.47,0,0,0-1.06-1.28,3.51,3.51,0,0,0-1.79-.42,4.42,4.42,0,0,0-1.58.28,3.71,3.71,0,0,0-1.28.8,3.79,3.79,0,0,0-.84,1.19,3.5,3.5,0,0,0-.3,1.46v10.5H58V15.7a5.26,5.26,0,0,0-.37-2.12,2.81,2.81,0,0,0-1.06-1.3,3.08,3.08,0,0,0-1.7-.45,4.29,4.29,0,0,0-1.57.28A3.7,3.7,0,0,0,52,12.9a3.47,3.47,0,0,0-1.14,2.63V26.06Z"/><path d="M80.49,4.76a2.74,2.74,0,0,1-1.91-.61A2.23,2.23,0,0,1,77.9,2.4,2.29,2.29,0,0,1,78.59.67,2.62,2.62,0,0,1,80.49,0a2.75,2.75,0,0,1,2,.62,2.26,2.26,0,0,1,.69,1.78,2.28,2.28,0,0,1-.7,1.7A2.72,2.72,0,0,1,80.49,4.76Zm-2,21.3V8.5h4.1V26.06Z"/><path d="M94.42,26.39a6.85,6.85,0,0,1-3.93-1.2,8.67,8.67,0,0,1-2.83-3.26,10.14,10.14,0,0,1-1.07-4.7,10.11,10.11,0,0,1,1.07-4.7,8.13,8.13,0,0,1,2.9-3.23,7.9,7.9,0,0,1,6.56-.79A6.13,6.13,0,0,1,99.06,9.6a6.58,6.58,0,0,1,1.38,1.6,5.62,5.62,0,0,1,.75,1.93l-.9-.23V8.5h4.13V26.06h-4.16v-4.2l1-.17a5.06,5.06,0,0,1-.85,1.75,6.42,6.42,0,0,1-1.53,1.5,8,8,0,0,1-2,1A7,7,0,0,1,94.42,26.39Zm1.14-3.63a4.58,4.58,0,0,0,2.53-.7,4.8,4.8,0,0,0,1.72-1.95,6.42,6.42,0,0,0,.61-2.88,6.24,6.24,0,0,0-.61-2.83,4.77,4.77,0,0,0-1.72-1.94,4.67,4.67,0,0,0-2.53-.7,4.58,4.58,0,0,0-2.52.7,4.68,4.68,0,0,0-1.68,1.94,6.37,6.37,0,0,0-.6,2.83,6.56,6.56,0,0,0,.6,2.88A4.71,4.71,0,0,0,93,22.06,4.5,4.5,0,0,0,95.56,22.76Z"/><path d="M117.09,33.72a13.28,13.28,0,0,1-3.92-.6A9.46,9.46,0,0,1,110,31.56l1.47-3a8,8,0,0,0,1.56.86,10,10,0,0,0,1.85.57,10.09,10.09,0,0,0,1.95.2,6.94,6.94,0,0,0,3-.55,3.75,3.75,0,0,0,1.78-1.67,5.81,5.81,0,0,0,.6-2.78V21.93l.6.23a4,4,0,0,1-1.09,2,6.88,6.88,0,0,1-2.27,1.51,7.07,7.07,0,0,1-2.8.59,8.31,8.31,0,0,1-4.42-1.17,8.57,8.57,0,0,1-3-3.18,9.52,9.52,0,0,1-1.12-4.65,9.74,9.74,0,0,1,1.1-4.68,8.42,8.42,0,0,1,3-3.24,8.41,8.41,0,0,1,6.25-1,7.16,7.16,0,0,1,1.71.67,8.24,8.24,0,0,1,1.42,1,5.47,5.47,0,0,1,1,1.13,3.06,3.06,0,0,1,.49,1.17l-.86.26.06-4.06h4V24.86a10.15,10.15,0,0,1-.64,3.76,7.61,7.61,0,0,1-1.83,2.79,7.9,7.9,0,0,1-2.9,1.73A11.82,11.82,0,0,1,117.09,33.72Zm.16-11a5,5,0,0,0,2.65-.7,4.79,4.79,0,0,0,1.79-1.94,6.11,6.11,0,0,0,.63-2.83,6.18,6.18,0,0,0-.65-2.88,4.79,4.79,0,0,0-4.42-2.65,4.78,4.78,0,0,0-2.63.72,4.9,4.9,0,0,0-1.78,2,6,6,0,0,0-.65,2.85,6,6,0,0,0,.65,2.82,4.87,4.87,0,0,0,1.78,2A4.94,4.94,0,0,0,117.25,22.73Z"/><path d="M139.28,26.39a10,10,0,0,1-4.88-1.16A8.38,8.38,0,0,1,131.1,22a8.92,8.92,0,0,1-1.19-4.61,10.36,10.36,0,0,1,.67-3.77,9.05,9.05,0,0,1,1.85-2.95,8.23,8.23,0,0,1,2.83-1.93,9.49,9.49,0,0,1,3.62-.68,7.94,7.94,0,0,1,3.23.66,8.24,8.24,0,0,1,2.6,1.82,7.93,7.93,0,0,1,1.68,2.73,9.47,9.47,0,0,1,.55,3.45l0,1.43H132.68l-.77-2.79h11.57l-.54.56v-.73a3.67,3.67,0,0,0-.66-1.82,4.11,4.11,0,0,0-1.45-1.23,4.24,4.24,0,0,0-2-.45,5.51,5.51,0,0,0-2.75.63,4,4,0,0,0-1.68,1.82,6.77,6.77,0,0,0-.57,2.95,6,6,0,0,0,.71,3,4.8,4.8,0,0,0,2,1.95,6.51,6.51,0,0,0,3.08.69,6.4,6.4,0,0,0,2.27-.4,8,8,0,0,0,2.23-1.44l2,2.84a9.08,9.08,0,0,1-2.05,1.41,11.87,11.87,0,0,1-2.41.92A9.93,9.93,0,0,1,139.28,26.39Z"/><path d="M150.58,26.06V8.5h4l.07,3.6-.77.4a5.17,5.17,0,0,1,1.3-2.19,7.78,7.78,0,0,1,2.3-1.58,6.61,6.61,0,0,1,2.74-.6,6.54,6.54,0,0,1,3.35.8,4.93,4.93,0,0,1,2,2.4,10.34,10.34,0,0,1,.68,4V26.06h-4.1V15.63a5.93,5.93,0,0,0-.36-2.22,2.57,2.57,0,0,0-1.14-1.3,3.61,3.61,0,0,0-1.86-.38,4.61,4.61,0,0,0-1.65.28A3.89,3.89,0,0,0,155,14a3.36,3.36,0,0,0-.32,1.46v10.6h-4.09Z"/><path d="M169.3,12.3V8.5h11.4v3.8Zm3.47,13.76V4h4.1v22Z"/><path class="cls-1" d="M185.4,26.43a2.42,2.42,0,0,1-1.85-.7,2.82,2.82,0,0,1-.65-2,2.76,2.76,0,0,1,.68-1.92,2.35,2.35,0,0,1,1.82-.75,2.41,2.41,0,0,1,1.85.69,2.76,2.76,0,0,1,.65,2,2.72,2.72,0,0,1-.69,1.92A2.32,2.32,0,0,1,185.4,26.43Z"/><path d="M194.23,4.76a2.78,2.78,0,0,1-1.92-.61,2.26,2.26,0,0,1-.68-1.75,2.3,2.3,0,0,1,.7-1.73,2.62,2.62,0,0,1,1.9-.67,2.79,2.79,0,0,1,2,.62,2.25,2.25,0,0,1,.68,1.78,2.24,2.24,0,0,1-.7,1.7A2.69,2.69,0,0,1,194.23,4.76Zm-2,21.3V8.5h4.1V26.06Z"/><path d="M209.56,26.39a9.27,9.27,0,0,1-4.7-1.18A8.72,8.72,0,0,1,201.59,22a9.18,9.18,0,0,1-1.2-4.7,9.21,9.21,0,0,1,1.2-4.7,8.79,8.79,0,0,1,3.27-3.25,9.37,9.37,0,0,1,4.7-1.18,9.27,9.27,0,0,1,4.66,1.18,8.6,8.6,0,0,1,3.25,3.25,9.3,9.3,0,0,1,1.19,4.7,9.28,9.28,0,0,1-1.19,4.7,8.53,8.53,0,0,1-3.25,3.25A9.17,9.17,0,0,1,209.56,26.39Zm0-3.63a4.55,4.55,0,0,0,2.55-.73,5.24,5.24,0,0,0,1.76-2,5.58,5.58,0,0,0,.62-2.8,5.67,5.67,0,0,0-.62-2.83,5.11,5.11,0,0,0-1.76-1.95,4.63,4.63,0,0,0-2.55-.72,4.73,4.73,0,0,0-2.58.72,4.88,4.88,0,0,0-1.79,2,6.15,6.15,0,0,0-.63,2.81,6,6,0,0,0,.63,2.8A5.08,5.08,0,0,0,207,22,4.65,4.65,0,0,0,209.56,22.76Z"/></svg>